<?xml version="1.0" encoding="UTF-8"?>
<svg version="1.1" xmlns="http://www.w3.org/2000/svg" width="187" height="40">
<path d="M0 0 C61.71 0 123.42 0 187 0 C187 13.2 187 26.4 187 40 C125.29 40 63.58 40 0 40 C0 26.8 0 13.6 0 0 Z " fill="#FDFCFC" transform="translate(0,0)"/>
<path d="M0 0 C1.98 0.33 3.96 0.66 6 1 C6 1.66 6 2.32 6 3 C6.55945313 2.83242187 7.11890625 2.66484375 7.6953125 2.4921875 C15.45250197 0.52171172 22.20957589 1.54069865 30 3 C30.33 2.01 30.66 1.02 31 0 C35.51807229 -0.37650602 35.51807229 -0.37650602 38 1.5625 C39.96669278 3.31557103 39.96669278 3.31557103 42.75 2.6875 C43.4925 2.460625 44.235 2.23375 45 2 C45 4.31 45 6.62 45 9 C33.292014 11.15319283 33.292014 11.15319283 28.875 10.9375 C27.92625 10.958125 26.9775 10.97875 26 11 C25.34 11.99 24.68 12.98 24 14 C23.62875 13.505 23.2575 13.01 22.875 12.5 C20.25305607 10.40244486 18.26157528 10.78256165 15 11 C14.67 12.65 14.34 14.3 14 16 C13.01 16.33 12.02 16.66 11 17 C11 18.65 11 20.3 11 22 C5.38862338 23.98736255 1.86530448 23.93100071 -4 23 C-5.051875 23 -6.10375 23 -7.1875 23 C-10 23 -10 23 -12.19921875 22.4609375 C-17.0096739 21.66925869 -21.77940589 22.53695189 -26.6015625 23.0390625 C-30 23 -30 23 -31.9609375 21.5234375 C-32.30382812 21.02070313 -32.64671875 20.51796875 -33 20 C-33.66 20.99 -34.32 21.98 -35 23 C-35.99 23 -36.98 23 -38 23 C-38.33 19.04 -38.66 15.08 -39 11 C-44.47774766 9.41678933 -44.47774766 9.41678933 -50 8 C-49.75 5.625 -49.75 5.625 -49 3 C-46.9375 1.6875 -46.9375 1.6875 -45 1 C-44.67 1.66 -44.34 2.32 -44 3 C-43.01 2.67 -42.02 2.34 -41 2 C-39.00038436 1.96079185 -36.99950636 1.95556653 -35 2 C-35 2.66 -35 3.32 -35 4 C-33.75283203 3.64035156 -33.75283203 3.64035156 -32.48046875 3.2734375 C-31.39378906 2.97695312 -30.30710937 2.68046875 -29.1875 2.375 C-28.10855469 2.07335937 -27.02960938 1.77171875 -25.91796875 1.4609375 C-23 1 -23 1 -20 3 C-17.0175423 3.02415584 -17.0175423 3.02415584 -13.8125 2.625 C-12.72582031 2.51414062 -11.63914063 2.40328125 -10.51953125 2.2890625 C-9.27236328 2.14597656 -9.27236328 2.14597656 -8 2 C-7.505 3.485 -7.505 3.485 -7 5 C-5.68 5 -4.36 5 -3 5 C-1.21030974 2.57327433 -1.21030974 2.57327433 0 0 Z " fill="#F5F5F5" transform="translate(129,9)"/>
<path d="M0 0 C2.45286997 1.13209383 4.53110554 2.37418799 6.75 3.9375 C10.43581746 6.27657647 13.88291983 7.58031718 18 9 C17.85892253 10.45880109 17.71197585 11.91703551 17.5625 13.375 C17.48128906 14.18710938 17.40007813 14.99921875 17.31640625 15.8359375 C17 18 17 18 16 20 C17.216875 19.979375 18.43375 19.95875 19.6875 19.9375 C22.91977322 19.93175884 25.84934741 20.21233685 29 21 C28.505 22.485 28.505 22.485 28 24 C28 23.34 28 22.68 28 22 C26.68 22 25.36 22 24 22 C24 23.65 24 25.3 24 27 C25.32 27.33 26.64 27.66 28 28 C28.33 27.34 28.66 26.68 29 26 C29 26.99 29 27.98 29 29 C23.66666667 29 18.33333333 29 13 29 C13 31.64 13 34.28 13 37 C6.84765625 37.87890625 6.84765625 37.87890625 5 38 C4.67 37.67 4.34 37.34 4 37 C1 36.83333333 1 36.83333333 -2 37 C-2.33 37.33 -2.66 37.66 -3 38 C-8.52941176 38.23529412 -8.52941176 38.23529412 -11 37 C-11.144375 35.865625 -11.28875 34.73125 -11.4375 33.5625 C-11.623125 32.386875 -11.80875 31.21125 -12 30 C-12.99 29.34 -13.98 28.68 -15 28 C-15.33 28.33 -15.66 28.66 -16 29 C-18.01964199 29.07244053 -20.04167124 29.08377188 -22.0625 29.0625 C-23.16722656 29.05347656 -24.27195312 29.04445313 -25.41015625 29.03515625 C-26.69212891 29.01775391 -26.69212891 29.01775391 -28 29 C-28 26.36 -28 23.72 -28 21 C-23.23692563 20.04738513 -18.8333472 19.91666643 -14 20 C-14.33 19.505 -14.66 19.01 -15 18.5 C-16.43636358 14.90909106 -16.12851462 11.85543873 -16 8 C-15.34773438 7.84144531 -14.69546875 7.68289062 -14.0234375 7.51953125 C-8.13861813 5.94851015 -4.37079057 4.25576977 0 0 Z " fill="#C7B18E" transform="translate(37,0)"/>
<path d="M0 0 C-1.98 0.99 -1.98 0.99 -4 2 C-3.34 2.33 -2.68 2.66 -2 3 C-1.29373761 4.98636298 -0.63106429 6.98848259 0 9 C0.63815344 10.34721283 1.29325371 11.68747118 2 13 C2.99 12.67 3.98 12.34 5 12 C4.34 11.34 3.68 10.68 3 10 C5.31 9.34 7.62 8.68 10 8 C8.68 7.34 7.36 6.68 6 6 C5.34 6.66 4.68 7.32 4 8 C1 7 1 7 -1 5 C-0.236875 4.896875 0.52625 4.79375 1.3125 4.6875 C4.0434843 4.24838314 4.0434843 4.24838314 5.5 2.375 C5.995 1.92125 6.49 1.4675 7 1 C9.5625 1.125 9.5625 1.125 12 2 C12.66 2.99 13.32 3.98 14 5 C16.05003955 6.19232613 16.05003955 6.19232613 18 7 C17.34 8.32 16.68 9.64 16 11 C16.99 10.67 17.98 10.34 19 10 C19.66 10.66 20.32 11.32 21 12 C20.34 12 19.68 12 19 12 C18.67 12.99 18.34 13.98 18 15 C17.505 15.495 17.505 15.495 17 16 C17.66 16.33 18.32 16.66 19 17 C14.08635548 19.40668303 10.58993818 20.60981144 5 20 C1.9375 18.6875 1.9375 18.6875 -1 17 C-5.06076429 14.80041934 -8.4011352 13.5474839 -13 13 C-13 14.65 -13 16.3 -13 18 C-11.35 17.67 -9.7 17.34 -8 17 C-8.99 16.67 -9.98 16.34 -11 16 C-10.67 15.34 -10.34 14.68 -10 14 C-7.36 14.99 -4.72 15.98 -2 17 C-2 17.66 -2 18.32 -2 19 C-1.34 19 -0.68 19 0 19 C-0.33 19.66 -0.66 20.32 -1 21 C-0.67 21.33 -0.34 21.66 0 22 C0.33 21.34 0.66 20.68 1 20 C2.98 20.33 4.96 20.66 7 21 C7 21.66 7 22.32 7 23 C10.63 23 14.26 23 18 23 C17.01 23.99 16.02 24.98 15 26 C15 26.99 15 27.98 15 29 C15.66 28.01 16.32 27.02 17 26 C17.99 26.99 18.98 27.98 20 29 C17.6739143 29.38063221 15.33944736 29.71269945 13 30 C12.67 29.67 12.34 29.34 12 29 C9 28.83333333 9 28.83333333 6 29 C5.67 29.33 5.34 29.66 5 30 C-0.52941176 30.23529412 -0.52941176 30.23529412 -3 29 C-3.144375 27.865625 -3.28875 26.73125 -3.4375 25.5625 C-3.623125 24.386875 -3.80875 23.21125 -4 22 C-4.99 21.34 -5.98 20.68 -7 20 C-7.33 20.33 -7.66 20.66 -8 21 C-10.01964199 21.07244053 -12.04167124 21.08377188 -14.0625 21.0625 C-15.16722656 21.05347656 -16.27195312 21.04445313 -17.41015625 21.03515625 C-18.69212891 21.01775391 -18.69212891 21.01775391 -20 21 C-20 18.36 -20 15.72 -20 13 C-15.23692563 12.04738513 -10.8333472 11.91666643 -6 12 C-6.33 11.505 -6.66 11.01 -7 10.5 C-8.43636358 6.90909106 -8.12851462 3.85543873 -8 0 C-4.71303767 -0.79953138 -3.28976808 -1.09658936 0 0 Z " fill="#CB9978" transform="translate(29,8)"/>
<path d="M0 0 C2.16039837 1.48992991 2.84878506 2.84071265 3.8125 5.25 C4.8025 4.92 5.7925 4.59 6.8125 4.25 C9.5 5.1875 9.5 5.1875 11.8125 6.25 C11.1525 8.56 10.4925 10.87 9.8125 13.25 C10.4725 13.25 11.1325 13.25 11.8125 13.25 C12.4725 12.26 13.1325 11.27 13.8125 10.25 C13.36186121 15.09436703 12.27256039 17.78993961 8.8125 21.25 C6.5625 22.0625 6.5625 22.0625 4.8125 22.25 C6.1325 20.6 7.4525 18.95 8.8125 17.25 C6.60168149 17.14459074 6.60168149 17.14459074 3.8125 18.25 C3.4825 17.59 3.1525 16.93 2.8125 16.25 C4.1325 14.93 5.4525 13.61 6.8125 12.25 C5.884375 11.8478125 5.884375 11.8478125 4.9375 11.4375 C2.8125 10.25 2.8125 10.25 0.8125 7.25 C-2.27115871 6.9997843 -2.27115871 6.9997843 -5.1875 7.25 C-5.8475 8.9 -6.5075 10.55 -7.1875 12.25 C-6.32125 11.693125 -6.32125 11.693125 -5.4375 11.125 C-3.1875 10.25 -3.1875 10.25 -0.9375 11.125 C-0.36 11.49625 0.2175 11.8675 0.8125 12.25 C0.8125 12.91 0.8125 13.57 0.8125 14.25 C-1.1675 14.58 -3.1475 14.91 -5.1875 15.25 C-4.5275 15.91 -3.8675 16.57 -3.1875 17.25 C-5.1675 17.91 -7.1475 18.57 -9.1875 19.25 C-11.34055957 15.39243493 -12.58003254 12.69870215 -12.1875 8.25 C-13.1775 7.92 -14.1675 7.59 -15.1875 7.25 C-12.1875 5.25 -12.1875 5.25 -10.1875 5.25 C-10.1875 4.59 -10.1875 3.93 -10.1875 3.25 C-8.94865681 2.52232997 -7.69581659 1.81845185 -6.4375 1.125 C-5.74140625 0.73054687 -5.0453125 0.33609375 -4.328125 -0.0703125 C-2.1875 -0.75 -2.1875 -0.75 0 0 Z " fill="#D8B37C" transform="translate(39.1875,2.75)"/>
<path d="M0 0 C0.66 0.66 1.32 1.32 2 2 C2.99 1.67 3.98 1.34 5 1 C6.99961564 0.96079185 9.00049364 0.95556653 11 1 C11 1.66 11 2.32 11 3 C14.465 2.505 14.465 2.505 18 2 C18 2.99 18 3.98 18 5 C18.99 5.33 19.98 5.66 21 6 C20.01 6.66 19.02 7.32 18 8 C19.32 8.33 20.64 8.66 22 9 C21.67 10.65 21.34 12.3 21 14 C20.01 14 19.02 14 18 14 C17.67 15.32 17.34 16.64 17 18 C17 16.68 17 15.36 17 14 C14.03 14 11.06 14 8 14 C7.34 12.35 6.68 10.7 6 9 C4.72125 8.855625 3.4425 8.71125 2.125 8.5625 C-0.25692894 8.29357254 -1.84452691 8.07773654 -4 7 C-3.6875 4.625 -3.6875 4.625 -3 2 C-2.01 1.34 -1.02 0.68 0 0 Z " fill="#FAFBFD" transform="translate(83,10)"/>
<path d="M0 0 C0.33 0.66 0.66 1.32 1 2 C4.63 1.67 8.26 1.34 12 1 C12.495 3.97 12.495 3.97 13 7 C1.33333333 7 -10.33333333 7 -22 7 C-22 5.02 -22 3.04 -22 1 C-21.67 1.99 -21.34 2.98 -21 4 C-20.34 4 -19.68 4 -19 4 C-19 3.01 -19 2.02 -19 1 C-18.01 1.33 -17.02 1.66 -16 2 C-15.4225 1.71125 -14.845 1.4225 -14.25 1.125 C-9.73590374 -1.13204813 -4.80224606 -1.55366784 0 0 Z " fill="#FAE5DA" transform="translate(150,11)"/>
<path d="M0 0 C2.97 0.99 5.94 1.98 9 3 C9 3.66 9 4.32 9 5 C9.66 5 10.32 5 11 5 C10.67 5.66 10.34 6.32 10 7 C10.33 7.33 10.66 7.66 11 8 C11.33 7.34 11.66 6.68 12 6 C14.97 6.495 14.97 6.495 18 7 C18 7.66 18 8.32 18 9 C21.63 9 25.26 9 29 9 C28.01 9.99 27.02 10.98 26 12 C26 12.99 26 13.98 26 15 C26.66 14.01 27.32 13.02 28 12 C28.99 12.99 29.98 13.98 31 15 C28.6739143 15.38063221 26.33944736 15.71269945 24 16 C23.505 15.505 23.505 15.505 23 15 C20 14.83333333 20 14.83333333 17 15 C16.67 15.33 16.34 15.66 16 16 C10.47058824 16.23529412 10.47058824 16.23529412 8 15 C7.855625 13.865625 7.71125 12.73125 7.5625 11.5625 C7.376875 10.386875 7.19125 9.21125 7 8 C6.01 7.34 5.02 6.68 4 6 C3.67 6.33 3.34 6.66 3 7 C0.98035801 7.07244053 -1.04167124 7.08377188 -3.0625 7.0625 C-4.16722656 7.05347656 -5.27195312 7.04445313 -6.41015625 7.03515625 C-7.69212891 7.01775391 -7.69212891 7.01775391 -9 7 C-8.67 6.34 -8.34 5.68 -8 5 C-6.35 5 -4.7 5 -3 5 C-3 4.67 -3 4.34 -3 4 C-1.02 3.67 0.96 3.34 3 3 C2.01 2.67 1.02 2.34 0 2 C0 1.34 0 0.68 0 0 Z " fill="#94724E" transform="translate(18,22)"/>
<path d="M0 0 C4.51807229 -0.37650602 4.51807229 -0.37650602 7 1.5625 C8.96669278 3.31557103 8.96669278 3.31557103 11.75 2.6875 C12.4925 2.460625 13.235 2.23375 14 2 C14 4.31 14 6.62 14 9 C2.292014 11.15319283 2.292014 11.15319283 -2.125 10.9375 C-3.07375 10.958125 -4.0225 10.97875 -5 11 C-5.99 12.485 -5.99 12.485 -7 14 C-7.33 13.525625 -7.66 13.05125 -8 12.5625 C-11.09813267 10.14208385 -14.12026792 10.31801083 -18 10 C-18 9.67 -18 9.34 -18 9 C-11.28837062 8.11978631 -4.76594019 7.88618045 2 8 C2 6.35 2 4.7 2 3 C1.01 3 0.02 3 -1 3 C-0.67 2.01 -0.34 1.02 0 0 Z M-10 3 C-7.03 3 -4.06 3 -1 3 C-1 3.33 -1 3.66 -1 4 C-5.455 4.495 -5.455 4.495 -10 5 C-10 4.34 -10 3.68 -10 3 Z " fill="#FBF3EB" transform="translate(160,9)"/>
<path d="M0 0 C2.45286997 1.13209383 4.53110554 2.37418799 6.75 3.9375 C10.43581746 6.27657647 13.88291983 7.58031718 18 9 C17.85892253 10.45880109 17.71197585 11.91703551 17.5625 13.375 C17.48128906 14.18710938 17.40007813 14.99921875 17.31640625 15.8359375 C17 18 17 18 16 20 C17.216875 19.979375 18.43375 19.95875 19.6875 19.9375 C22.91977322 19.93175884 25.84934741 20.21233685 29 21 C28.67 21.99 28.34 22.98 28 24 C28 23.34 28 22.68 28 22 C26.68 22 25.36 22 24 22 C24 23.65 24 25.3 24 27 C25.32 27.33 26.64 27.66 28 28 C28.33 27.34 28.66 26.68 29 26 C29 26.99 29 27.98 29 29 C25.37 29 21.74 29 18 29 C17.67 28.01 17.34 27.02 17 26 C18.98 26 20.96 26 23 26 C23 24.35 23 22.7 23 21 C22.38511719 21.144375 21.77023438 21.28875 21.13671875 21.4375 C20.32847656 21.623125 19.52023438 21.80875 18.6875 22 C17.88699219 22.185625 17.08648437 22.37125 16.26171875 22.5625 C14 23 14 23 11 23 C12.32 21.02 13.64 19.04 15 17 C14.01 17 13.02 17 12 17 C11.67 16.34 11.34 15.68 11 15 C11.9375 12.375 11.9375 12.375 13 10 C11.02 9.01 9.04 8.02 7 7 C6.67 7.66 6.34 8.32 6 9 C4.68 7.02 3.36 5.04 2 3 C0.35 3.33 -1.3 3.66 -3 4 C-2.01 2.68 -1.02 1.36 0 0 Z " fill="#AC8062" transform="translate(37,0)"/>
<path d="M0 0 C0.66 0.33 1.32 0.66 2 1 C2 1.66 2 2.32 2 3 C2.66 3.33 3.32 3.66 4 4 C4 4.66 4 5.32 4 6 C3.34 6 2.68 6 2 6 C1.34 7.65 0.68 9.3 0 11 C0.86625 10.443125 0.86625 10.443125 1.75 9.875 C4 9 4 9 6.25 9.875 C6.8275 10.24625 7.405 10.6175 8 11 C8 11.66 8 12.32 8 13 C6.02 13.33 4.04 13.66 2 14 C2.66 14.66 3.32 15.32 4 16 C2.02 16.66 0.04 17.32 -2 18 C-4.15305957 14.14243493 -5.39253254 11.44870215 -5 7 C-5.99 6.67 -6.98 6.34 -8 6 C-5 4 -5 4 -3 4 C-3 3.34 -3 2.68 -3 2 C-2.01 1.34 -1.02 0.68 0 0 Z " fill="#E4C69E" transform="translate(32,4)"/>
<path d="M0 0 C0.66 0.66 1.32 1.32 2 2 C2.99 1.67 3.98 1.34 5 1 C6.99961564 0.96079185 9.00049364 0.95556653 11 1 C11.33 1.66 11.66 2.32 12 3 C12.99 3.33 13.98 3.66 15 4 C15 5.32 15 6.64 15 8 C8.7306836 8.94329992 1.88778228 9.94389114 -4 7 C-3.6875 4.625 -3.6875 4.625 -3 2 C-2.01 1.34 -1.02 0.68 0 0 Z " fill="#E3AFA0" transform="translate(83,10)"/>
<path d="M0 0 C2.5625 0.125 2.5625 0.125 5 1 C5.66 1.99 6.32 2.98 7 4 C9.05003955 5.19232613 9.05003955 5.19232613 11 6 C9.84826645 8.46800047 8.95216435 10.04783565 7 12 C4.90625 12.30078125 4.90625 12.30078125 2.5 12.3125 C1.7059375 12.32925781 0.911875 12.34601562 0.09375 12.36328125 C-0.5971875 12.24339844 -1.288125 12.12351562 -2 12 C-2.66 11.01 -3.32 10.02 -4 9 C-1.69 8.34 0.62 7.68 3 7 C1.68 6.34 0.36 5.68 -1 5 C-1.66 5.66 -2.32 6.32 -3 7 C-6 6 -6 6 -8 4 C-7.236875 3.896875 -6.47375 3.79375 -5.6875 3.6875 C-2.9565157 3.24838314 -2.9565157 3.24838314 -1.5 1.375 C-1.005 0.92125 -0.51 0.4675 0 0 Z " fill="#71633C" transform="translate(36,9)"/>
<path d="M0 0 C1.34674768 0.63913449 2.67835734 1.31044731 4 2 C5.57158878 2.42151885 7.15629082 2.7968834 8.75 3.125 C9.54921875 3.29257813 10.3484375 3.46015625 11.171875 3.6328125 C11.77515625 3.75398437 12.3784375 3.87515625 13 4 C13 5.32 13 6.64 13 8 C7.39 8 1.78 8 -4 8 C-3.67 7.34 -3.34 6.68 -3 6 C-3.39938767 3.90178785 -3.39938767 3.90178785 -4 2 C-2.25 0.875 -2.25 0.875 0 0 Z " fill="#DEA99A" transform="translate(105,10)"/>
<path d="M0 0 C6.44360293 0.29222689 10.59213419 1.46833253 16 5 C18.64458379 6.32229189 20.67761301 6.09677194 23.625 6.0625 C24.62789062 6.05347656 25.63078125 6.04445313 26.6640625 6.03515625 C27.82035156 6.01775391 27.82035156 6.01775391 29 6 C28.67 6.66 28.34 7.32 28 8 C26.35 8 24.7 8 23 8 C23 8.66 23 9.32 23 10 C24.65 10 26.3 10 28 10 C28 10.33 28 10.66 28 11 C24.04 11 20.08 11 16 11 C17.32 10.67 18.64 10.34 20 10 C20 9.34 20 8.68 20 8 C17.03 7.505 17.03 7.505 14 7 C14.33 7.99 14.66 8.98 15 10 C13.68 9.67 12.36 9.34 11 9 C11.33 8.34 11.66 7.68 12 7 C11.67 6.67 11.34 6.34 11 6 C10.67 5.34 10.34 4.68 10 4 C7.6859378 3.26924352 5.35171131 2.59861742 3 2 C2.67 2.33 2.34 2.66 2 3 C3.65 3.33 5.3 3.66 7 4 C7 4.33 7 4.66 7 5 C4.69 5 2.38 5 0 5 C0 3.35 0 1.7 0 0 Z " fill="#E4CBA2" transform="translate(16,21)"/>
<path d="M0 0 C2.97 0.99 5.94 1.98 9 3 C9 3.66 9 4.32 9 5 C9.66 5 10.32 5 11 5 C10.67 5.66 10.34 6.32 10 7 C10.33 7.33 10.66 7.66 11 8 C10.01 8.495 10.01 8.495 9 9 C9.33 9.99 9.66 10.98 10 12 C10.99 12 11.98 12 13 12 C13 12.66 13 13.32 13 14 C13.66 14.33 14.32 14.66 15 15 C15.33 14.34 15.66 13.68 16 13 C16 13.99 16 14.98 16 16 C10.25 16.125 10.25 16.125 8 15 C7.855625 13.865625 7.71125 12.73125 7.5625 11.5625 C7.376875 10.386875 7.19125 9.21125 7 8 C6.01 7.34 5.02 6.68 4 6 C3.67 6.33 3.34 6.66 3 7 C0.98035801 7.07244053 -1.04167124 7.08377188 -3.0625 7.0625 C-4.16722656 7.05347656 -5.27195312 7.04445313 -6.41015625 7.03515625 C-7.69212891 7.01775391 -7.69212891 7.01775391 -9 7 C-8.67 6.34 -8.34 5.68 -8 5 C-6.35 5 -4.7 5 -3 5 C-3 4.67 -3 4.34 -3 4 C-1.02 3.67 0.96 3.34 3 3 C2.01 2.67 1.02 2.34 0 2 C0 1.34 0 0.68 0 0 Z " fill="#9C9369" transform="translate(18,22)"/>
<path d="M0 0 C0.99 0.33 1.98 0.66 3 1 C4.89952346 0.91478259 6.79663573 0.76270916 8.6875 0.5625 C9.68136719 0.46066406 10.67523438 0.35882813 11.69921875 0.25390625 C12.45847656 0.17011719 13.21773437 0.08632812 14 0 C14.33 1.98 14.66 3.96 15 6 C9.39 6 3.78 6 -2 6 C-2.33 4.68 -2.66 3.36 -3 2 C-2.34 2 -1.68 2 -1 2 C-0.67 1.34 -0.34 0.68 0 0 Z " fill="#E3ADA2" transform="translate(148,12)"/>
<path d="M0 0 C0 0.66 0 1.32 0 2 C1.65 2 3.3 2 5 2 C5 3.32 5 4.64 5 6 C4.195625 6.12375 3.39125 6.2475 2.5625 6.375 C1.2940625 6.684375 1.2940625 6.684375 0 7 C-0.33 7.66 -0.66 8.32 -1 9 C-4.63 8.67 -8.26 8.34 -12 8 C-12 7.34 -12 6.68 -12 6 C-9.525 6.495 -9.525 6.495 -7 7 C-7.3403125 6.1028125 -7.3403125 6.1028125 -7.6875 5.1875 C-8 3 -8 3 -6.875 1.25 C-4.46145349 -0.35903101 -2.84326464 -0.23053497 0 0 Z " fill="#FDEDE5" transform="translate(65,12)"/>
<path d="M0 0 C2.97 0 5.94 0 9 0 C9.33 1.98 9.66 3.96 10 6 C10.33 4.35 10.66 2.7 11 1 C11.66 1 12.32 1 13 1 C13 3.31 13 5.62 13 8 C8.44615385 8.36923077 8.44615385 8.36923077 6.1875 6.5 C5.5996875 5.7575 5.5996875 5.7575 5 5 C4.01 6.485 4.01 6.485 3 8 C2.01 8 1.02 8 0 8 C0 5.36 0 2.72 0 0 Z " fill="#8B94A6" transform="translate(91,24)"/>
<path d="M0 0 C0 0.66 0 1.32 0 2 C3.71736641 2.34900558 3.71736641 2.34900558 6.8125 0.5 C7.204375 0.005 7.59625 -0.49 8 -1 C8 1.64 8 4.28 8 7 C5.02125433 7 2.25877459 6.8790419 -0.6875 6.5625 C-1.47511719 6.48128906 -2.26273437 6.40007813 -3.07421875 6.31640625 C-5 6 -5 6 -6 5 C-6.04063832 3.33382885 -6.042721 1.66611905 -6 0 C-3.50907189 -1.24546405 -2.58919267 -0.7767578 0 0 Z " fill="#929BAA" transform="translate(113,25)"/>
<path d="M0 0 C2.31 0.66 4.62 1.32 7 2 C6.34 4.31 5.68 6.62 5 9 C5.66 9 6.32 9 7 9 C7.66 8.01 8.32 7.02 9 6 C8.54936121 10.84436703 7.46006039 13.53993961 4 17 C1.75 17.8125 1.75 17.8125 0 18 C1.32 16.35 2.64 14.7 4 13 C1.78918149 12.89459074 1.78918149 12.89459074 -1 14 C-1.33 13.34 -1.66 12.68 -2 12 C-1.195625 11.21625 -0.39125 10.4325 0.4375 9.625 C2.98690417 7.28017144 2.98690417 7.28017144 4 5 C3.01 4.67 2.02 4.34 1 4 C0.3125 1.9375 0.3125 1.9375 0 0 Z " fill="#ECC49E" transform="translate(44,7)"/>
<path d="M0 0 C-1.98 0.99 -1.98 0.99 -4 2 C-3.34 2.33 -2.68 2.66 -2 3 C-0.60536866 6.60963407 0.32823171 10.19331304 1 14 C-3.875 11.375 -3.875 11.375 -5 8 C-5.66 8.66 -6.32 9.32 -7 10 C-8.60725635 6.78548731 -8.05748185 3.56387464 -8 0 C-4.71303767 -0.79953138 -3.28976808 -1.09658936 0 0 Z " fill="#B38972" transform="translate(29,8)"/>
<path d="M0 0 C0.721875 0.185625 1.44375 0.37125 2.1875 0.5625 C5.12826973 1.01995307 7.14103058 0.73516357 10 0 C10 2.31 10 4.62 10 7 C6.7 7 3.4 7 0 7 C0 4.69 0 2.38 0 0 Z " fill="#EAC5B9" transform="translate(164,11)"/>
<path d="M0 0 C0.99 0.66 1.98 1.32 3 2 C2.34 2 1.68 2 1 2 C0.67 2.99 0.34 3.98 0 5 C-0.33 5.33 -0.66 5.66 -1 6 C-0.34 6.33 0.32 6.66 1 7 C-3.91046959 9.40512796 -7.40391464 10.54863582 -13 10 C-13.66 9.34 -14.32 8.68 -15 8 C-13.02 7.67 -11.04 7.34 -9 7 C-9 6.01 -9 5.02 -9 4 C-7.6078125 3.566875 -7.6078125 3.566875 -6.1875 3.125 C-2.90208333 2.1125 -2.90208333 2.1125 0 0 Z " fill="#9F704C" transform="translate(47,18)"/>
<path d="M0 0 C1.32 1.65 2.64 3.3 4 5 C0.37 4.34 -3.26 3.68 -7 3 C-7.372678 7.627322 -7.372678 7.627322 -6 10 C-8.31 10 -10.62 10 -13 10 C-13.33 7.69 -13.66 5.38 -14 3 C-9.23692563 2.04738513 -4.8333472 1.91666643 0 2 C0 1.34 0 0.68 0 0 Z " fill="#A37C61" transform="translate(23,18)"/>
<path d="M0 0 C0.33 0.99 0.66 1.98 1 3 C0.67 3.66 0.34 4.32 0 5 C1.216875 4.979375 2.43375 4.95875 3.6875 4.9375 C6.91977322 4.93175884 9.84934741 5.21233685 13 6 C12.67 6.99 12.34 7.98 12 9 C12 8.34 12 7.68 12 7 C10.68 7 9.36 7 8 7 C8 8.65 8 10.3 8 12 C9.32 12.33 10.64 12.66 12 13 C12.33 12.34 12.66 11.68 13 11 C13 11.99 13 12.98 13 14 C9.37 14 5.74 14 2 14 C1.67 13.01 1.34 12.02 1 11 C2.98 11 4.96 11 7 11 C7 9.35 7 7.7 7 6 C6.38511719 6.144375 5.77023438 6.28875 5.13671875 6.4375 C4.32847656 6.623125 3.52023438 6.80875 2.6875 7 C1.48673828 7.2784375 1.48673828 7.2784375 0.26171875 7.5625 C-2 8 -2 8 -5 8 C-3.35 5.36 -1.7 2.72 0 0 Z " fill="#855645" transform="translate(53,15)"/>
<path d="M0 0 C1.67542976 0.28604898 3.34385343 0.61781233 5 1 C6 5.75 6 5.75 6 8 C3.69 8 1.38 8 -1 8 C-1.04241723 5.66705225 -1.04092937 3.33297433 -1 1 C-0.67 0.67 -0.34 0.34 0 0 Z " fill="#9BA8BB" transform="translate(123,24)"/>
<path d="M0 0 C1.32 0 2.64 0 4 0 C4.66 1.98 5.32 3.96 6 6 C4.88625 5.79375 3.7725 5.5875 2.625 5.375 C1.42875 5.25125 0.2325 5.1275 -1 5 C-1.66 5.66 -2.32 6.32 -3 7 C-6 6 -6 6 -8 4 C-7.236875 3.896875 -6.47375 3.79375 -5.6875 3.6875 C-2.97012877 3.23565084 -2.97012877 3.23565084 -1.4375 1.4375 C-0.963125 0.963125 -0.48875 0.48875 0 0 Z " fill="#95712D" transform="translate(36,9)"/>
<path d="M0 0 C0.33 1.32 0.66 2.64 1 4 C-2.75 5.125 -2.75 5.125 -5 4 C-5 4.66 -5 5.32 -5 6 C-6.32 6.33 -7.64 6.66 -9 7 C-9.66 6.01 -10.32 5.02 -11 4 C-7.30030748 0.96096686 -4.76995305 0 0 0 Z " fill="#C1A784" transform="translate(59,22)"/>
<path d="M0 0 C0.33 0 0.66 0 1 0 C1.66 3.63 2.32 7.26 3 11 C-1.455 11.495 -1.455 11.495 -6 12 C-5 9 -5 9 -2 7 C-2 5.68 -2 4.36 -2 3 C-1.34 3 -0.68 3 0 3 C0 2.01 0 1.02 0 0 Z " fill="#FCF3EB" transform="translate(20,9)"/>
<path d="M0 0 C1.65 0 3.3 0 5 0 C5 0.66 5 1.32 5 2 C6.65 2 8.3 2 10 2 C10 3.32 10 4.64 10 6 C6.7 6 3.4 6 0 6 C0.33 5.34 0.66 4.68 1 4 C0.60061233 1.90178785 0.60061233 1.90178785 0 0 Z " fill="#CD8F82" transform="translate(60,12)"/>
<path d="M0 0 C0.66 0 1.32 0 2 0 C2 0.66 2 1.32 2 2 C2.66 2 3.32 2 4 2 C4.33 3.65 4.66 5.3 5 7 C2.36 7 -0.28 7 -3 7 C-3 5.68 -3 4.36 -3 3 C-2.34 3 -1.68 3 -1 3 C-0.67 2.01 -0.34 1.02 0 0 Z " fill="#D29281" transform="translate(74,11)"/>
<path d="M0 0 C4.62 0 9.24 0 14 0 C13.67 0.66 13.34 1.32 13 2 C11.35 2 9.7 2 8 2 C8 2.66 8 3.32 8 4 C9.65 4 11.3 4 13 4 C13 4.33 13 4.66 13 5 C9.04 5 5.08 5 1 5 C2.32 4.67 3.64 4.34 5 4 C5 3.34 5 2.68 5 2 C3.35 1.67 1.7 1.34 0 1 C0 0.67 0 0.34 0 0 Z " fill="#EAD9AC" transform="translate(31,27)"/>
<path d="M0 0 C0 0.99 0 1.98 0 3 C0.99 3.33 1.98 3.66 3 4 C-1.47718792 6.98479194 -5.63824093 8 -11 8 C-11 7.34 -11 6.68 -11 6 C-8.36 6 -5.72 6 -3 6 C-3 4.68 -3 3.36 -3 2 C-3.99 1.67 -4.98 1.34 -6 1 C-3.92446352 0.4465236 -2.15634036 0 0 0 Z " fill="#F9DFD2" transform="translate(101,12)"/>
<path d="M0 0 C0.66 0.33 1.32 0.66 2 1 C2 1.66 2 2.32 2 3 C2.66 3.33 3.32 3.66 4 4 C4 4.66 4 5.32 4 6 C3.34 6 2.68 6 2 6 C1.67 6.99 1.34 7.98 1 9 C-0.32 8.67 -1.64 8.34 -3 8 C-3 6 -3 4 -3 2 C-2.01 1.34 -1.02 0.68 0 0 Z " fill="#CCA978" transform="translate(32,4)"/>
<path d="M0 0 C0.33 0 0.66 0 1 0 C1 2.64 1 5.28 1 8 C-2.79557881 8 -4.62902617 7.49821059 -8 6 C-6.6875 4.5 -6.6875 4.5 -5 3 C-4.01 3 -3.02 3 -2 3 C-1.34 2.01 -0.68 1.02 0 0 Z " fill="#606A84" transform="translate(120,24)"/>
<path d="M0 0 C3.125 0.375 3.125 0.375 6 1 C6 1.66 6 2.32 6 3 C6.66 3.33 7.32 3.66 8 4 C7.01 4 6.02 4 5 4 C4.67 4.66 4.34 5.32 4 6 C4 5.01 4 4.02 4 3 C3.34 3 2.68 3 2 3 C2 3.99 2 4.98 2 6 C1.34 6 0.68 6 0 6 C-0.66 6.99 -1.32 7.98 -2 9 C-2.125 5.625 -2.125 5.625 -2 2 C-1.34 1.34 -0.68 0.68 0 0 Z " fill="#F8E2DB" transform="translate(129,9)"/>
<path d="M0 0 C0.66 0 1.32 0 2 0 C2 0.66 2 1.32 2 2 C3.32 2 4.64 2 6 2 C6 3.32 6 4.64 6 6 C3.36 6 0.72 6 -2 6 C-2.33 4.68 -2.66 3.36 -3 2 C-2.34 2 -1.68 2 -1 2 C-0.67 1.34 -0.34 0.68 0 0 Z " fill="#D3897E" transform="translate(148,12)"/>
<path d="M0 0 C4.455 0.99 4.455 0.99 9 2 C9.33 3.32 9.66 4.64 10 6 C9.34 6 8.68 6 8 6 C8 5.34 8 4.68 8 4 C7.34 4 6.68 4 6 4 C6 4.66 6 5.32 6 6 C4.68 5.67 3.36 5.34 2 5 C2.66 5 3.32 5 4 5 C3.34 4.34 2.68 3.68 2 3 C1.34 3.66 0.68 4.32 0 5 C0 3.35 0 1.7 0 0 Z " fill="#DAA688" transform="translate(27,31)"/>
<path d="M0 0 C0.33 0.99 0.66 1.98 1 3 C1.66 3 2.32 3 3 3 C3 2.01 3 1.02 3 0 C3.66 0 4.32 0 5 0 C6.38938077 1.96147874 7.7260411 3.96166576 9 6 C6.03 6 3.06 6 0 6 C0 4.02 0 2.04 0 0 Z " fill="#CD8578" transform="translate(128,12)"/>
<path d="M0 0 C0.66 0.66 1.32 1.32 2 2 C2.99 1.67 3.98 1.34 5 1 C4.67 2.98 4.34 4.96 4 7 C3.34 7 2.68 7 2 7 C1.34 6.34 0.68 5.68 0 5 C-0.66 4.67 -1.32 4.34 -2 4 C-2.33 4.99 -2.66 5.98 -3 7 C-3.33 5.68 -3.66 4.36 -4 3 C-2.68 2.01 -1.36 1.02 0 0 Z " fill="#E4C2B3" transform="translate(83,10)"/>
<path d="M0 0 C0.99 0.33 1.98 0.66 3 1 C2.67 2.65 2.34 4.3 2 6 C-1.71599191 6.20086443 -2.77208445 6.1519437 -6 4 C-6 3.34 -6 2.68 -6 2 C-4.02 2 -2.04 2 0 2 C0 1.34 0 0.68 0 0 Z " fill="#D79A8B" transform="translate(142,12)"/>
<path d="M0 0 C0 2.62113708 -0.31292445 4.50935112 -1 7 C-0.34 7.33 0.32 7.66 1 8 C0.34 8 -0.32 8 -1 8 C-1.33 8.66 -1.66 9.32 -2 10 C-2.66 9.67 -3.32 9.34 -4 9 C-4 6.69 -4 4.38 -4 2 C-2.68 1.34 -1.36 0.68 0 0 Z " fill="#FCF0E9" transform="translate(54,27)"/>
<path d="M0 0 C0.66 0 1.32 0 2 0 C2 0.66 2 1.32 2 2 C3.65 2 5.3 2 7 2 C7 3.32 7 4.64 7 6 C4.69 6 2.38 6 0 6 C0 4.02 0 2.04 0 0 Z " fill="#CC8C7F" transform="translate(164,12)"/>
<path d="M0 0 C2.95409701 1.37154504 5.44008376 2.98863724 8 5 C7.34 6.32 6.68 7.64 6 9 C4.68 7.02 3.36 5.04 2 3 C0.35 3.33 -1.3 3.66 -3 4 C-2.01 2.68 -1.02 1.36 0 0 Z " fill="#B09172" transform="translate(37,0)"/>
<path d="M0 0 C1.485 0.99 1.485 0.99 3 2 C2.34 2 1.68 2 1 2 C1.33 2.99 1.66 3.98 2 5 C2.99 5 3.98 5 5 5 C5 5.66 5 6.32 5 7 C5.66 7.33 6.32 7.66 7 8 C7.33 7.34 7.66 6.68 8 6 C8 6.99 8 7.98 8 9 C2.25 9.125 2.25 9.125 0 8 C0 5.36 0 2.72 0 0 Z " fill="#89634C" transform="translate(26,29)"/>
<path d="M0 0 C2.64 0 5.28 0 8 0 C8.33 0.66 8.66 1.32 9 2 C5.71480525 3.09506492 3.26336585 3.09960608 -0.1875 3.0625 C-1.81751953 3.04896484 -1.81751953 3.04896484 -3.48046875 3.03515625 C-4.31191406 3.02355469 -5.14335937 3.01195312 -6 3 C-5.67 2.34 -5.34 1.68 -5 1 C-3.35 1 -1.7 1 0 1 C0 0.67 0 0.34 0 0 Z " fill="#805D4B" transform="translate(15,26)"/>
<path d="M0 0 C1.32 0 2.64 0 4 0 C4 1.98 4 3.96 4 6 C1.69 6 -0.62 6 -3 6 C-2.01 5.67 -1.02 5.34 0 5 C0 3.35 0 1.7 0 0 Z " fill="#E7B89D" transform="translate(61,22)"/>
<path d="M0 0 C0.33 0.99 0.66 1.98 1 3 C-0.45742463 3.08096803 -1.91612807 3.13917774 -3.375 3.1875 C-4.18710937 3.22230469 -4.99921875 3.25710937 -5.8359375 3.29296875 C-6.55007812 3.19628906 -7.26421875 3.09960938 -8 3 C-8.66 2.01 -9.32 1.02 -10 0 C-6.7169902 -1.6415049 -3.57454967 -0.51888624 0 0 Z " fill="#7E6E4B" transform="translate(42,18)"/>
<path d="M0 0 C0.33 0.66 0.66 1.32 1 2 C1.66 2 2.32 2 3 2 C3.33 1.34 3.66 0.68 4 0 C4 0.66 4 1.32 4 2 C5.65 2 7.3 2 9 2 C9 2.33 9 2.66 9 3 C-1.55808656 4.33257403 -1.55808656 4.33257403 -6 3 C-6.33 3.66 -6.66 4.32 -7 5 C-7.33 4.01 -7.66 3.02 -8 2 C-6.865625 1.855625 -5.73125 1.71125 -4.5625 1.5625 C-1.19222799 1.38828522 -1.19222799 1.38828522 0 0 Z " fill="#FBF0E6" transform="translate(80,16)"/>
<path d="M0 0 C0.99 0 1.98 0 3 0 C3 0.66 3 1.32 3 2 C3.99 2 4.98 2 6 2 C5.34 3.32 4.68 4.64 4 6 C2.68 6 1.36 6 0 6 C0 4.02 0 2.04 0 0 Z " fill="#DCBCB1" transform="translate(119,12)"/>
<path d="M0 0 C2.97 0.495 2.97 0.495 6 1 C6 1.99 6 2.98 6 4 C0.58461538 5.23076923 0.58461538 5.23076923 -2.375 4.0625 C-2.91125 3.711875 -3.4475 3.36125 -4 3 C-2.68 2.34 -1.36 1.68 0 1 C0 0.67 0 0.34 0 0 Z " fill="#B8A481" transform="translate(34,13)"/>
<path d="M0 0 C2.31 0.66 4.62 1.32 7 2 C6.01 4.64 5.02 7.28 4 10 C3.67 9.01 3.34 8.02 3 7 C3.33 6.34 3.66 5.68 4 5 C3.01 4.67 2.02 4.34 1 4 C0.3125 1.9375 0.3125 1.9375 0 0 Z " fill="#F8D7AB" transform="translate(44,7)"/>
<path d="M0 0 C1.32 0.66 2.64 1.32 4 2 C3.67 2.99 3.34 3.98 3 5 C1.02 5.33 -0.96 5.66 -3 6 C-3 4.68 -3 3.36 -3 2 C-2.01 1.34 -1.02 0.68 0 0 Z " fill="#FAD398" transform="translate(37,2)"/>
<path d="M0 0 C2.97 0 5.94 0 9 0 C9 0.33 9 0.66 9 1 C7.35 1 5.7 1 4 1 C4 1.99 4 2.98 4 4 C5.32 4.33 6.64 4.66 8 5 C5.36 5 2.72 5 0 5 C0 3.35 0 1.7 0 0 Z " fill="#EFCFA8" transform="translate(34,21)"/>
<path d="M0 0 C0.33 0 0.66 0 1 0 C1.33 1.65 1.66 3.3 2 5 C2.33 5 2.66 5 3 5 C3.33 3.35 3.66 1.7 4 0 C4.66 0 5.32 0 6 0 C6 2.31 6 4.62 6 7 C4.33388095 7.042721 2.66617115 7.04063832 1 7 C0 6 0 6 -0.0625 2.9375 C-0.041875 1.968125 -0.02125 0.99875 0 0 Z " fill="#586179" transform="translate(98,25)"/>
<path d="M0 0 C0.99 0 1.98 0 3 0 C4.75 2.3125 4.75 2.3125 6 5 C5.67 5.99 5.34 6.98 5 8 C2.21611025 6.29374499 1.14615794 5.52373261 0.25 2.3125 C0.1675 1.549375 0.085 0.78625 0 0 Z " fill="#A6744E" transform="translate(24,14)"/>
<path d="M0 0 C1.32 0 2.64 0 4 0 C4 1.65 4 3.3 4 5 C2.35 5.33 0.7 5.66 -1 6 C-1.042721 4.33388095 -1.04063832 2.66617115 -1 1 C-0.67 0.67 -0.34 0.34 0 0 Z " fill="#57607B" transform="translate(131,27)"/>
<path d="M0 0 C1.65 0.33 3.3 0.66 5 1 C4.01 1.495 4.01 1.495 3 2 C3 3.65 3 5.3 3 7 C2.67 6.01 2.34 5.02 2 4 C1.34 4 0.68 4 0 4 C0.33 5.32 0.66 6.64 1 8 C0.34 8 -0.32 8 -1 8 C-0.67 5.36 -0.34 2.72 0 0 Z " fill="#F9DDD0" transform="translate(145,10)"/>
<path d="M0 0 C0 1.65 0 3.3 0 5 C-0.66 5 -1.32 5 -2 5 C-2.99 5.495 -2.99 5.495 -4 6 C-4 5.01 -4 4.02 -4 3 C-5.65 3 -7.3 3 -9 3 C-9 2.67 -9 2.34 -9 2 C-7.68786298 1.66524067 -6.37527913 1.33223233 -5.0625 1 C-3.96615234 0.7215625 -3.96615234 0.7215625 -2.84765625 0.4375 C-1 0 -1 0 0 0 Z " fill="#EAB79A" transform="translate(48,31)"/>
<path d="M0 0 C0.99 0 1.98 0 3 0 C3 1.65 3 3.3 3 5 C3.99 5.33 4.98 5.66 6 6 C3.69 6 1.38 6 -1 6 C-0.67 4.02 -0.34 2.04 0 0 Z " fill="#F3CDB0" transform="translate(11,22)"/>
<path d="M0 0 C0.33 0 0.66 0 1 0 C1 1.65 1 3.3 1 5 C-1.31 5 -3.62 5 -6 5 C-6 3.68 -6 2.36 -6 1 C-4.68 1 -3.36 1 -2 1 C-2 1.99 -2 2.98 -2 4 C-1.34 4 -0.68 4 0 4 C0 2.68 0 1.36 0 0 Z " fill="#C17D6C" transform="translate(87,13)"/>
<path d="M0 0 C0.66 0.66 1.32 1.32 2 2 C1.67 2.66 1.34 3.32 1 4 C0.34 4 -0.32 4 -1 4 C-1.33 5.32 -1.66 6.64 -2 8 C-2 6.68 -2 5.36 -2 4 C-2.66 4 -3.32 4 -4 4 C-4.33 4.99 -4.66 5.98 -5 7 C-5.33 5.68 -5.66 4.36 -6 3 C-4.35 3 -2.7 3 -1 3 C-0.67 2.01 -0.34 1.02 0 0 Z " fill="#FCE2D8" transform="translate(72,10)"/>
<path d="M0 0 C0 0.66 0 1.32 0 2 C-6.28571429 4.42857143 -6.28571429 4.42857143 -10 3 C-3.375 0 -3.375 0 0 0 Z " fill="#939262" transform="translate(59,22)"/>
<path d="M0 0 C0.66 0 1.32 0 2 0 C2 0.66 2 1.32 2 2 C2.66 2 3.32 2 4 2 C4.33 3.65 4.66 5.3 5 7 C3.68 7 2.36 7 1 7 C0.67 4.69 0.34 2.38 0 0 Z " fill="#E6AEA2" transform="translate(74,11)"/>
<path d="M0 0 C0.99 0.66 1.98 1.32 3 2 C2.34 2 1.68 2 1 2 C0.67 2.99 0.34 3.98 0 5 C-1.98 5 -3.96 5 -6 5 C-5.195625 4.360625 -4.39125 3.72125 -3.5625 3.0625 C-1.7249496 1.59396498 -1.7249496 1.59396498 0 0 Z " fill="#BA8361" transform="translate(47,18)"/>
<path d="M0 0 C1.32 1.65 2.64 3.3 4 5 C-1.94 4.01 -1.94 4.01 -8 3 C-8 2.67 -8 2.34 -8 2 C-5.36 2 -2.72 2 0 2 C0 1.34 0 0.68 0 0 Z " fill="#885B42" transform="translate(23,18)"/>
<path d="M0 0 C0.33 1.32 0.66 2.64 1 4 C0.01 4.33 -0.98 4.66 -2 5 C-2 4.34 -2 3.68 -2 3 C-3.32 2.67 -4.64 2.34 -6 2 C-3 0 -3 0 0 0 Z " fill="#F6D3A4" transform="translate(30,8)"/>
<path d="M0 0 C2.97 0.495 2.97 0.495 6 1 C5.67 1.99 5.34 2.98 5 4 C3.68 4 2.36 4 1 4 C0.67 2.68 0.34 1.36 0 0 Z " fill="#C08966" transform="translate(36,33)"/>
<path d="M0 0 C1.32 0 2.64 0 4 0 C3.67 1.65 3.34 3.3 3 5 C2.01 4.67 1.02 4.34 0 4 C0 2.68 0 1.36 0 0 Z " fill="#646B80" transform="translate(136,27)"/>
<path d="M0 0 C0.99 0 1.98 0 3 0 C3 1.65 3 3.3 3 5 C1.68 4.67 0.36 4.34 -1 4 C-0.67 2.68 -0.34 1.36 0 0 Z " fill="#697189" transform="translate(126,27)"/>
</svg>
